<?xml version="1.0" encoding="utf-8"?>
<!-- Generator: Adobe Illustrator 24.2.0, SVG Export Plug-In . SVG Version: 6.00 Build 0)  -->
<svg version="1.1" id="Layer_1" xmlns="http://www.w3.org/2000/svg" xmlns:xlink="http://www.w3.org/1999/xlink" x="0px" y="0px"
	 viewBox="0 0 124.7 202.68" style="enable-background:new 0 0 124.7 202.68;" xml:space="preserve">
<style type="text/css">
	.st0{fill-rule:evenodd;clip-rule:evenodd;}
</style>
<g>
	<path class="st0" d="M51.47,51.67l-7.22,9.94c-3.62,4.98-2.5,13.81,2.44,17.38l13.38,9.66c2.3,1.66,2.48,3.3,1.39,5.05l1.94,1.44
		l6.77-9.39c4.19-5.8,3.82-13.69-2.39-18.21L54.3,57.72c-1.62-1.18-1.78-2.82-0.89-4.66L51.47,51.67L51.47,51.67z M63.05,7.72
		L51.82,23.26c-5.27,7.29-3.35,19.74,3.85,25.02l18.48,13.56c3.75,2.75,4.23,9.75,1.51,13.34l1.57,1.18l12.74-17.93
		c5.72-8.05,5.39-19.95-3.6-26.47L66.6,17.6c-2.77-2.01-4.15-5.42-1.84-8.68L63.05,7.72L63.05,7.72z M33.44,105.19h14.89l2.65,9.03
		c8.11,0,16.23,0,24.34,0l2.65-9.03h14.89l-1.95-6.64c-18.51,0-37.02,0-55.53,0L33.44,105.19L33.44,105.19z M11.88,0.14h100.94
		c6.53,0,11.88,5.35,11.88,11.88v178.4c0,6.53-5.35,11.88-11.88,11.88H11.88C5.35,202.3,0,196.95,0,190.42V12.02
		C0,5.48,5.35,0.14,11.88,0.14L11.88,0.14z M11.88,0.95h100.94c6.09,0,11.07,4.98,11.07,11.07v178.4c0,6.09-4.98,11.07-11.07,11.07
		H11.88c-6.09,0-11.07-4.98-11.07-11.07V12.02C0.81,5.93,5.79,0.95,11.88,0.95L11.88,0.95z M121.44,162.64v27.78
		c0,4.74-3.88,8.62-8.62,8.62H11.88c-4.74,0-8.62-3.88-8.62-8.62v-27.78H121.44L121.44,162.64z M23.14,177.96l-4.43-11.05h-2.26
		L12,177.96h2.5l0.92-2.46h4.26l0.91,2.46H23.14L23.14,177.96z M18.87,173.4h-2.66l0.75-2.01c0.12-0.33,0.24-0.64,0.34-0.95
		c0.11-0.31,0.19-0.56,0.24-0.77c0.06,0.21,0.14,0.47,0.24,0.77c0.11,0.31,0.22,0.62,0.34,0.95L18.87,173.4L18.87,173.4z
		 M32.98,168.72c-0.69-0.79-1.77-1.52-2.79-1.8c-0.44-0.12-0.94-0.18-1.48-0.18c-0.77,0-1.46,0.14-2.1,0.42
		c-0.63,0.28-1.18,0.67-1.63,1.17c-0.45,0.5-0.81,1.1-1.06,1.8c-0.25,0.7-0.38,1.47-0.38,2.31c0,0.87,0.12,1.66,0.37,2.36
		c0.24,0.7,0.59,1.3,1.04,1.79c0.45,0.49,0.98,0.88,1.61,1.14c0.62,0.27,1.31,0.4,2.08,0.4c1.41,0,3.85-0.77,4.55-2.15l-1.66-1.47
		c-0.47,0.75-1.94,1.42-2.82,1.42c-0.43,0-0.82-0.09-1.16-0.27c-0.34-0.18-0.64-0.43-0.87-0.74c-0.24-0.32-0.42-0.69-0.54-1.11
		c-0.12-0.43-0.18-0.89-0.18-1.38c0-0.52,0.06-0.99,0.18-1.41c0.12-0.43,0.3-0.79,0.53-1.11c0.23-0.31,0.52-0.55,0.87-0.73
		c0.34-0.17,0.73-0.26,1.16-0.26c0.87,0,2.11,0.58,2.69,1.34L32.98,168.72L32.98,168.72z M55.07,177.96l-2.58-4.2
		c0.74-0.27,1.57-0.77,1.94-1.3c0.37-0.53,0.56-1.21,0.56-2.04c0-0.59-0.11-1.1-0.32-1.54c-0.21-0.44-0.5-0.8-0.87-1.1
		c-0.37-0.29-0.79-0.51-1.28-0.66c-0.49-0.14-1-0.21-1.55-0.21h-5.42v11.05h2.33v-3.98l2.08,0.1l2.43,3.88H55.07L55.07,177.96z
		 M52.59,170.46c0,0.96-0.55,1.44-1.66,1.44h-3.04v-2.84h3.04c0.52,0,0.93,0.11,1.22,0.32C52.45,169.6,52.59,169.96,52.59,170.46
		L52.59,170.46z M64.86,177.96v-2.16h-6.01v-2.67h4.83v-2.15h-4.83v-1.91h5.76v-2.16h-8.09v11.05H64.86L64.86,177.96z M76.03,172.44
		c0-1.01-0.15-1.87-0.44-2.57c-0.29-0.7-0.7-1.27-1.21-1.71c-0.52-0.44-1.13-0.76-1.83-0.95c-0.7-0.19-1.47-0.29-2.3-0.29H66.6
		v11.05h3.48c0.74,0,1.47-0.11,2.19-0.32c0.72-0.21,1.35-0.54,1.91-0.99c0.56-0.45,1.01-1.02,1.35-1.72
		C75.86,174.24,76.03,173.41,76.03,172.44L76.03,172.44z M73.64,172.44c0,0.51-0.07,0.97-0.22,1.38c-0.14,0.42-0.36,0.77-0.65,1.07
		c-0.29,0.29-0.66,0.52-1.11,0.69c-0.45,0.16-0.98,0.24-1.59,0.24h-1.15v-6.76h1.23c1.23,0,2.12,0.28,2.66,0.84
		C73.37,170.47,73.64,171.31,73.64,172.44L73.64,172.44z M80.62,177.96v-11.05h-2.33v11.05H80.62L80.62,177.96z M91.47,169.09v-2.18
		h-9.02v2.18h3.34v8.87h2.33v-8.87H91.47L91.47,169.09z M112.48,172.44c0-1.01-0.15-1.87-0.44-2.57c-0.29-0.7-0.7-1.27-1.21-1.71
		c-0.52-0.44-1.13-0.76-1.83-0.95c-0.7-0.19-1.47-0.29-2.3-0.29h-3.64v11.05h3.48c0.74,0,1.47-0.11,2.19-0.32
		c0.72-0.21,1.35-0.54,1.91-0.99c0.56-0.45,1.01-1.02,1.35-1.72C112.31,174.24,112.48,173.41,112.48,172.44L112.48,172.44z
		 M110.08,172.44c0,0.51-0.07,0.97-0.22,1.38c-0.14,0.42-0.36,0.77-0.65,1.07c-0.29,0.29-0.66,0.52-1.11,0.69
		c-0.45,0.16-0.98,0.24-1.59,0.24h-1.15v-6.76h1.23c1.23,0,2.12,0.28,2.66,0.84C109.81,170.47,110.08,171.31,110.08,172.44
		L110.08,172.44z M101.3,177.96v-2.16h-6.01v-2.67h4.83v-2.15h-4.83v-1.91h5.76v-2.16h-8.08v11.05H101.3L101.3,177.96z
		 M81.81,192.23v-2.16h-6v-2.67h4.83v-2.15h-4.83v-1.91h5.76v-2.16h-8.09v11.05H81.81L81.81,192.23z M43.73,168.72
		c-0.69-0.79-1.77-1.52-2.79-1.8c-0.44-0.12-0.94-0.18-1.48-0.18c-0.77,0-1.46,0.14-2.1,0.42c-0.63,0.28-1.18,0.67-1.63,1.17
		c-0.45,0.5-0.81,1.1-1.06,1.8c-0.26,0.7-0.38,1.47-0.38,2.31c0,0.87,0.12,1.66,0.37,2.36c0.24,0.7,0.59,1.3,1.04,1.79
		c0.45,0.49,0.98,0.88,1.61,1.14c0.62,0.27,1.31,0.4,2.08,0.4c1.41,0,3.85-0.77,4.55-2.15l-1.66-1.47
		c-0.47,0.75-1.94,1.42-2.82,1.42c-0.43,0-0.82-0.09-1.16-0.27c-0.34-0.18-0.64-0.43-0.87-0.74c-0.24-0.32-0.42-0.69-0.54-1.11
		c-0.12-0.43-0.18-0.89-0.18-1.38c0-0.52,0.06-0.99,0.18-1.41c0.12-0.43,0.3-0.79,0.53-1.11c0.23-0.31,0.52-0.55,0.86-0.73
		c0.34-0.17,0.73-0.26,1.16-0.26c0.87,0,2.11,0.58,2.69,1.34L43.73,168.72L43.73,168.72z M34.21,188.66c0-0.61-0.15-1.12-0.45-1.52
		c-0.3-0.4-0.68-0.7-1.13-0.9c0.38-0.22,0.67-0.52,0.88-0.88c0.21-0.37,0.32-0.79,0.32-1.26c0-0.95-0.32-1.67-0.97-2.17
		c-0.65-0.5-1.52-0.75-2.63-0.75h-5.2v11.05h5.15c0.6,0,1.16-0.08,1.65-0.23c0.5-0.15,0.92-0.38,1.27-0.68
		c0.35-0.3,0.62-0.67,0.82-1.12C34.11,189.76,34.21,189.24,34.21,188.66L34.21,188.66z M31.52,184.28c0,0.31-0.09,0.56-0.28,0.75
		c-0.19,0.2-0.52,0.29-1,0.29h-3v-2.1h2.89c0.5,0,0.85,0.09,1.07,0.27C31.41,183.67,31.52,183.93,31.52,184.28L31.52,184.28z
		 M31.88,188.7c0,0.44-0.13,0.79-0.4,1.05c-0.26,0.26-0.67,0.39-1.22,0.39h-3.01v-2.86h3.01C31.34,187.28,31.88,187.75,31.88,188.7
		L31.88,188.7z M44.91,187.35v-6.17h-2.27v6.2c0,0.89-0.21,1.59-0.62,2.1c-0.42,0.5-0.99,0.76-1.71,0.76c-0.72,0-1.29-0.26-1.7-0.77
		c-0.41-0.52-0.62-1.22-0.62-2.12v-6.17h-2.27v6.2c0,0.81,0.11,1.53,0.33,2.15c0.22,0.62,0.53,1.14,0.93,1.57
		c0.4,0.43,0.88,0.75,1.45,0.97c0.57,0.22,1.19,0.33,1.87,0.33c1.45,0,2.58-0.44,3.39-1.32C44.51,190.21,44.91,188.96,44.91,187.35
		L44.91,187.35z M55.34,188.89c0-0.6-0.11-1.09-0.34-1.48c-0.23-0.39-0.52-0.71-0.88-0.96c-0.36-0.25-0.77-0.45-1.22-0.59
		c-0.45-0.14-0.9-0.27-1.35-0.37c-0.45-0.11-0.83-0.2-1.12-0.28c-0.29-0.08-0.52-0.17-0.7-0.27c-0.17-0.09-0.29-0.2-0.36-0.32
		c-0.07-0.12-0.11-0.27-0.11-0.45c0-0.13,0.03-0.25,0.08-0.36c0.05-0.12,0.15-0.22,0.28-0.32c0.13-0.09,0.3-0.17,0.5-0.23
		c0.21-0.06,0.46-0.09,0.76-0.09c0.52,0,0.99,0.1,1.4,0.29c0.42,0.19,0.81,0.48,1.17,0.84l1.64-1.55c-0.54-0.55-1.14-0.97-1.81-1.28
		c-0.66-0.31-1.44-0.46-2.33-0.46c-0.56,0-1.09,0.07-1.58,0.22c-0.49,0.15-0.92,0.36-1.29,0.64c-0.37,0.28-0.66,0.62-0.87,1.02
		c-0.21,0.4-0.32,0.85-0.32,1.36c0,0.55,0.09,1.01,0.26,1.37c0.17,0.37,0.42,0.67,0.73,0.92c0.31,0.24,0.69,0.44,1.13,0.6
		c0.44,0.16,0.92,0.29,1.43,0.41c0.53,0.12,0.96,0.23,1.3,0.33c0.34,0.11,0.59,0.22,0.77,0.33c0.18,0.12,0.3,0.24,0.36,0.37
		c0.06,0.13,0.1,0.29,0.1,0.47c0,0.42-0.16,0.73-0.48,0.92c-0.32,0.19-0.82,0.28-1.5,0.28c-0.55,0-1.07-0.1-1.56-0.29
		c-0.49-0.19-0.94-0.52-1.34-0.97l-1.64,1.42c0.43,0.62,1.04,1.11,1.82,1.47c0.78,0.36,1.64,0.54,2.59,0.54c0.78,0,1.45-0.08,2-0.25
		c0.56-0.17,1.02-0.41,1.39-0.72c0.37-0.31,0.64-0.68,0.81-1.11C55.26,189.89,55.34,189.41,55.34,188.89L55.34,188.89z
		 M59.45,192.23v-11.05h-2.27v11.05H59.45L59.45,192.23z M71,192.23v-11.05h-2.24v4.67c0,0.16,0,0.35,0.01,0.58
		c0,0.23,0.01,0.47,0.01,0.71c0,0.23,0,0.45,0.01,0.66c0.01,0.21,0.01,0.36,0.01,0.47c-0.08-0.15-0.19-0.34-0.35-0.58
		c-0.16-0.24-0.31-0.46-0.45-0.67l-4.02-5.84h-2.17v11.05h2.24v-4.86c0-0.16,0-0.35-0.01-0.58c-0.01-0.23-0.01-0.46-0.01-0.69
		c0-0.24,0-0.47-0.01-0.67c-0.01-0.21-0.01-0.36-0.01-0.47c0.08,0.15,0.19,0.34,0.35,0.58c0.16,0.24,0.31,0.46,0.45,0.67l4.17,6.03
		H71L71,192.23z M91.08,188.89c0-0.6-0.11-1.09-0.34-1.48c-0.23-0.39-0.52-0.71-0.88-0.96c-0.36-0.25-0.77-0.45-1.22-0.59
		c-0.45-0.14-0.9-0.27-1.35-0.37c-0.45-0.11-0.83-0.2-1.12-0.28c-0.29-0.08-0.52-0.17-0.7-0.27c-0.17-0.09-0.29-0.2-0.36-0.32
		c-0.07-0.12-0.11-0.27-0.11-0.45c0-0.13,0.03-0.25,0.08-0.36c0.05-0.12,0.15-0.22,0.28-0.32c0.13-0.09,0.3-0.17,0.5-0.23
		c0.21-0.06,0.46-0.09,0.76-0.09c0.52,0,0.99,0.1,1.4,0.29c0.42,0.19,0.81,0.48,1.17,0.84l1.64-1.55c-0.54-0.55-1.14-0.97-1.81-1.28
		c-0.66-0.31-1.44-0.46-2.33-0.46c-0.56,0-1.09,0.07-1.58,0.22c-0.49,0.15-0.92,0.36-1.29,0.64c-0.37,0.28-0.66,0.62-0.87,1.02
		c-0.21,0.4-0.32,0.85-0.32,1.36c0,0.55,0.09,1.01,0.26,1.37c0.17,0.37,0.42,0.67,0.73,0.92c0.31,0.24,0.69,0.44,1.13,0.6
		c0.44,0.16,0.92,0.29,1.43,0.41c0.53,0.12,0.96,0.23,1.3,0.33c0.34,0.11,0.59,0.22,0.77,0.33c0.18,0.12,0.3,0.24,0.36,0.37
		c0.07,0.13,0.1,0.29,0.1,0.47c0,0.42-0.16,0.73-0.48,0.92c-0.32,0.19-0.82,0.28-1.5,0.28c-0.55,0-1.07-0.1-1.56-0.29
		c-0.49-0.19-0.94-0.52-1.34-0.97l-1.64,1.42c0.43,0.62,1.04,1.11,1.82,1.47c0.78,0.36,1.64,0.54,2.59,0.54c0.78,0,1.45-0.08,2-0.25
		c0.56-0.17,1.02-0.41,1.39-0.72c0.37-0.31,0.64-0.68,0.81-1.11C90.99,189.89,91.08,189.41,91.08,188.89L91.08,188.89z
		 M100.83,188.89c0-0.6-0.11-1.09-0.34-1.48c-0.23-0.39-0.52-0.71-0.88-0.96c-0.36-0.25-0.77-0.45-1.22-0.59
		c-0.45-0.14-0.9-0.27-1.35-0.37c-0.45-0.11-0.83-0.2-1.12-0.28c-0.29-0.08-0.52-0.17-0.7-0.27c-0.17-0.09-0.3-0.2-0.36-0.32
		c-0.07-0.12-0.11-0.27-0.11-0.45c0-0.13,0.03-0.25,0.08-0.36c0.05-0.12,0.15-0.22,0.28-0.32c0.13-0.09,0.3-0.17,0.5-0.23
		c0.21-0.06,0.46-0.09,0.76-0.09c0.52,0,0.99,0.1,1.4,0.29c0.42,0.19,0.81,0.48,1.18,0.84l1.64-1.55c-0.54-0.55-1.14-0.97-1.81-1.28
		c-0.66-0.31-1.44-0.46-2.33-0.46c-0.56,0-1.09,0.07-1.58,0.22c-0.49,0.15-0.92,0.36-1.29,0.64c-0.37,0.28-0.66,0.62-0.87,1.02
		c-0.21,0.4-0.32,0.85-0.32,1.36c0,0.55,0.09,1.01,0.26,1.37c0.17,0.37,0.42,0.67,0.73,0.92c0.31,0.24,0.69,0.44,1.13,0.6
		c0.44,0.16,0.92,0.29,1.43,0.41c0.53,0.12,0.96,0.23,1.3,0.33c0.34,0.11,0.59,0.22,0.77,0.33c0.18,0.12,0.3,0.24,0.36,0.37
		c0.06,0.13,0.1,0.29,0.1,0.47c0,0.42-0.16,0.73-0.48,0.92c-0.32,0.19-0.82,0.28-1.5,0.28c-0.55,0-1.07-0.1-1.56-0.29
		c-0.49-0.19-0.94-0.52-1.34-0.97l-1.64,1.42c0.43,0.62,1.04,1.11,1.81,1.47c0.78,0.36,1.64,0.54,2.59,0.54c0.78,0,1.45-0.08,2-0.25
		c0.56-0.17,1.02-0.41,1.39-0.72c0.37-0.31,0.64-0.68,0.81-1.11C100.74,189.89,100.83,189.41,100.83,188.89L100.83,188.89z
		 M34.56,146.4h-8.92v-7.47h8.92C41.12,138.93,40.72,146.4,34.56,146.4L34.56,146.4z M65.14,146.4h-8.92v-7.47h8.92
		C71.7,138.93,71.3,146.4,65.14,146.4L65.14,146.4z M95.71,146.4h-8.92v-7.47h8.92C102.27,138.93,101.87,146.4,95.71,146.4
		L95.71,146.4z M33.95,133.09h-8.32v-6.99h8C38.64,126.11,38.82,133.09,33.95,133.09L33.95,133.09z M64.53,133.09h-8.32v-6.99h8
		C69.21,126.11,69.39,133.09,64.53,133.09L64.53,133.09z M95.1,133.09h-8.32v-6.99h8C99.79,126.11,99.97,133.09,95.1,133.09
		L95.1,133.09z M46.24,142.24c-0.63-4.29-2.36-5.32-5.83-6.85c2.62-1.53,4.22-3.78,4.22-6.87c0-6.17-5.05-8.68-10.57-8.68h-15.4
		v32.75h15.26C40.44,152.59,47.35,149.74,46.24,142.24L46.24,142.24z M76.81,142.24c-0.63-4.29-2.36-5.32-5.82-6.85
		c2.62-1.53,4.22-3.78,4.22-6.87c0-6.17-5.05-8.68-10.57-8.68h-15.4v32.75H64.5C71.02,152.59,77.92,149.74,76.81,142.24
		L76.81,142.24z M107.39,142.24c-0.63-4.29-2.36-5.32-5.82-6.85c2.62-1.53,4.22-3.78,4.22-6.87c0-6.17-5.05-8.68-10.57-8.68h-15.4
		v32.75h15.26C101.59,152.59,108.5,149.74,107.39,142.24L107.39,142.24z M110.35,151.52c0-0.14-0.02-0.26-0.05-0.36
		c-0.04-0.11-0.1-0.2-0.18-0.29c-0.09-0.09-0.2-0.17-0.34-0.24c-0.14-0.07-0.32-0.15-0.53-0.22c-0.19-0.07-0.35-0.13-0.46-0.18
		c-0.12-0.06-0.21-0.11-0.27-0.17c-0.06-0.06-0.11-0.12-0.13-0.18c-0.02-0.06-0.03-0.13-0.03-0.21c0-0.07,0.01-0.14,0.04-0.21
		c0.03-0.07,0.07-0.12,0.13-0.17c0.06-0.05,0.14-0.09,0.23-0.12c0.09-0.03,0.21-0.04,0.34-0.04c0.19,0,0.36,0.03,0.5,0.09
		c0.14,0.06,0.28,0.14,0.41,0.26l0.27-0.32c-0.16-0.12-0.33-0.22-0.51-0.29c-0.18-0.07-0.4-0.11-0.65-0.11
		c-0.18,0-0.34,0.02-0.49,0.06c-0.15,0.04-0.27,0.11-0.37,0.19c-0.1,0.08-0.18,0.18-0.24,0.3c-0.06,0.12-0.09,0.25-0.09,0.4
		c0,0.13,0.02,0.25,0.06,0.35c0.04,0.1,0.1,0.19,0.18,0.28c0.09,0.08,0.2,0.16,0.34,0.23c0.14,0.07,0.31,0.14,0.52,0.21
		c0.17,0.06,0.32,0.12,0.43,0.18c0.12,0.06,0.21,0.12,0.28,0.18c0.07,0.06,0.12,0.12,0.15,0.2c0.03,0.07,0.04,0.15,0.04,0.23
		c0,0.2-0.07,0.35-0.22,0.46c-0.15,0.11-0.35,0.17-0.6,0.17c-0.19,0-0.38-0.04-0.54-0.12c-0.17-0.08-0.32-0.19-0.47-0.32l-0.28,0.31
		c0.15,0.15,0.34,0.27,0.56,0.37c0.22,0.1,0.46,0.14,0.72,0.14c0.2,0,0.38-0.03,0.53-0.08c0.15-0.05,0.29-0.12,0.4-0.22
		c0.11-0.09,0.19-0.2,0.25-0.33C110.32,151.8,110.35,151.66,110.35,151.52L110.35,151.52z M114.29,152.49v-3.69h-0.46l-0.91,2.21
		c-0.02,0.05-0.05,0.11-0.07,0.18c-0.03,0.07-0.05,0.13-0.08,0.2c-0.03,0.07-0.05,0.13-0.07,0.19c-0.02,0.06-0.04,0.11-0.05,0.15
		c-0.01-0.04-0.03-0.09-0.05-0.14c-0.02-0.06-0.05-0.12-0.07-0.19c-0.03-0.07-0.05-0.13-0.08-0.2c-0.03-0.07-0.05-0.13-0.07-0.18
		l-0.9-2.21h-0.47v3.69h0.41v-2.5v-0.4c0.01,0.04,0.02,0.08,0.04,0.13c0.02,0.05,0.03,0.1,0.05,0.16c0.02,0.05,0.04,0.11,0.06,0.17
		c0.02,0.06,0.04,0.11,0.07,0.16l1,2.38l1.02-2.38c0.02-0.05,0.04-0.1,0.07-0.16c0.02-0.06,0.04-0.11,0.07-0.17
		c0.02-0.05,0.04-0.11,0.06-0.16c0.02-0.05,0.03-0.09,0.04-0.13v0.4v2.5H114.29L114.29,152.49z"/>
</g>
</svg>
