<?xml version="1.0" encoding="utf-8"?>
<!-- Generator: Adobe Illustrator 24.2.0, SVG Export Plug-In . SVG Version: 6.00 Build 0)  -->
<svg version="1.1" id="Layer_1" xmlns="http://www.w3.org/2000/svg" xmlns:xlink="http://www.w3.org/1999/xlink" x="0px" y="0px"
	 viewBox="0 0 202.03 202.03" style="enable-background:new 0 0 202.03 202.03;" xml:space="preserve">
<g>
	<path d="M190.68,142.56l11.53,26.64v-8.78L192,138.14C191.78,139.81,191.32,141.28,190.68,142.56z"/>
	<path d="M202.21,13.43L164.1,48.49c-0.03-0.03-0.06-0.06-0.11-0.08c-0.3-0.3-0.61-0.58-0.94-0.85l35.47-47.75h-3.25l-33.35,46.92
		c-0.39-0.26-0.78-0.48-1.2-0.69l21.16-46.23h-2.68l-19.76,45.66c-0.44-0.17-0.87-0.31-1.32-0.43l10.11-45.23h-2.42l-9.06,44.95
		c-0.46-0.07-0.92-0.11-1.38-0.14l0.46-44.81h-2.33l0.47,44.81c-0.47,0.03-0.93,0.07-1.37,0.14l-9.06-44.95h-2.43l10.12,45.23
		c-0.45,0.12-0.9,0.26-1.33,0.43L130.13-0.19h-2.69l21.17,46.23c-0.41,0.21-0.82,0.44-1.2,0.69L114.07-0.19h-3.25l35.46,47.75
		c-0.36,0.29-0.7,0.59-1.04,0.92L92.31-0.19h-4.4l56.39,49.72c-0.18,0.22-0.34,0.46-0.51,0.7c-0.08,0.12-0.17,0.23-0.25,0.36
		l-0.05,0.06L57.52-0.19h-7.11l92.38,52.06c-0.09,0.16-0.15,0.35-0.22,0.52c-0.09,0.2-0.19,0.4-0.27,0.61
		c-0.02,0.05-0.05,0.1-0.07,0.15L0.06,5.29v4.75l141.73,44.42c-0.03,0.13-0.05,0.27-0.08,0.4c-0.05,0.23-0.1,0.45-0.14,0.69
		c-0.01,0.09-0.04,0.18-0.05,0.27L0.06,39.46v4.4l141.31,13.36c-0.01,0.23-0.03,0.46-0.03,0.69c0,0.24,0.02,0.46,0.03,0.69
		L0.06,71.97v4.39L141.51,60c0.01,0.09,0.03,0.18,0.05,0.27c0.04,0.23,0.09,0.45,0.14,0.68c0.03,0.13,0.06,0.27,0.08,0.4
		L0.06,105.77v4.76l142.17-47.84c0.02,0.05,0.05,0.11,0.07,0.16c0.08,0.19,0.16,0.37,0.25,0.56c0.08,0.18,0.15,0.36,0.24,0.55
		l-99.62,56.13h-23.4v13.19L0.06,144.39c2.12,0.16-0.7,4.88,1.2,5.23l18.51-10.99v37.64l-19.95,17.62c0.74,0.89-0.38,6,0.24,6.96
		l19.71-18.12v6.42h24.75c4.44,0,8.76-0.52,12.83-1.57c-0.04,0.01-0.07,0.02-0.11,0.03l-10.91,14.61c0.21-0.01,0.39-0.03,0.6-0.04
		c1.05-0.03,5.99-0.31,6.96-0.28l12.57-17.85c-0.14,0.08-0.29,0.14-0.44,0.22c5.86-3.08,10.7-7.66,13.83-13.86
		c-0.1,9.01,5.55,15.53,14.31,18.32l-6.07,13.26h4.83l5.31-12.28c1.94,0.33,3.99,0.51,6.14,0.51c5.91,0,11.66-1.66,16.4-4.98
		l3.32,3.92h0.94l-2.9,13.09h4.64l2.58-13.09h23.37l-0.13,12.83h4.14l-0.14-12.83h10.58c5.27,0,9.78-0.62,13.57-1.76
		c-0.12,0.04-0.24,0.08-0.36,0.12c1.51,7.64,2.53,12.95,2.77,14.47c6.53-0.54,2.33-0.44,4.3,0l-3.51-15.74
		c8.15-3.51,12.05-9.97,12.05-18.21c0-9.56-9.19-15.77-17.22-16.17v-0.2c4.36-1.97,13.36-5.12,13.36-15.87
		c0-10.06-8.91-15.69-22.66-15.69h-0.32l-11.02-49.31c0.45-0.12,0.89-0.27,1.31-0.43l22.38,51.7c1.33,0.5,2.55,1.09,3.65,1.78
		l-24.74-54.05c0.42-0.21,0.81-0.44,1.2-0.69l40.3,56.71V121l-39.16-52.73c0.36-0.29,0.7-0.59,1.04-0.92l38.12,35.06v-3.32
		l-37.19-32.8c0.18-0.22,0.35-0.46,0.52-0.71c0.08-0.11,0.16-0.22,0.24-0.33c0.01-0.03,0.04-0.05,0.06-0.08l36.37,21.51v-2.62
		l-35.68-20.1c0.09-0.17,0.16-0.35,0.25-0.53c0.08-0.18,0.17-0.36,0.24-0.55c0.03-0.06,0.06-0.12,0.08-0.18l35.11,11.81v-2.28
		l-34.68-10.86c0.04-0.14,0.06-0.28,0.09-0.42c0.04-0.22,0.09-0.45,0.14-0.67c0.01-0.08,0.04-0.18,0.05-0.27l34.39,3.98v-2.14
		l-34.25-3.24c0.01-0.23,0.03-0.46,0.03-0.7c0-0.23-0.02-0.45-0.03-0.68l34.25-3.25v-2.13l-34.39,3.97c-0.02-0.1-0.05-0.2-0.07-0.3
		c-0.04-0.23-0.09-0.45-0.14-0.67c-0.02-0.12-0.05-0.26-0.08-0.38l34.68-10.87v-2.28l-35.1,11.81c-0.03-0.06-0.06-0.11-0.08-0.18
		c-0.08-0.19-0.16-0.38-0.25-0.57c-0.09-0.17-0.15-0.35-0.24-0.53l35.67-20.09v-2.63l-36.37,21.51c-0.03-0.02-0.05-0.06-0.07-0.09
		c-0.07-0.11-0.15-0.21-0.23-0.31c-0.17-0.24-0.33-0.49-0.52-0.72l37.19-32.78V13.43z M182.01,186.96c0.09-0.03,0.18-0.06,0.27-0.09
		C182.19,186.9,182.1,186.93,182.01,186.96z M45.36,120.09c0.13,0,0.26,0.01,0.39,0.01c-0.15,0-0.3-0.01-0.45-0.01H45.36z
		 M44.61,176.21h-3.94v-43.2h4.63c9.67,0,16.94,7.83,16.94,19.72C62.24,166.64,56.59,176.21,44.61,176.21z M59.82,186.85
		c-0.09,0.03-0.17,0.06-0.26,0.08C59.65,186.9,59.73,186.87,59.82,186.85z M62.24,185.98c-0.11,0.04-0.23,0.09-0.34,0.14
		C62.01,186.07,62.13,186.03,62.24,185.98z M64.02,185.23c0.19-0.09,0.39-0.18,0.58-0.27C64.4,185.06,64.21,185.15,64.02,185.23z
		 M73.54,128.85c-5.28-4.57-12.79-7.73-22.92-8.55l92.86-55.14c0.02,0.02,0.03,0.04,0.04,0.06c0.09,0.13,0.18,0.25,0.28,0.38
		c0.16,0.24,0.32,0.48,0.5,0.7l-70.8,62.52C73.51,128.82,73.53,128.84,73.54,128.85z M75.39,130.61c0.16,0.17,0.33,0.33,0.49,0.5
		l69.35-63.77c0.01,0.01,0.02,0.02,0.03,0.03c0.32,0.32,0.65,0.61,1,0.9l-45.46,60.92c-8.1,2.8-9.99,8.91-9.99,12.66
		c0,0.24,0.02,0.46,0.03,0.69l-7.08,9.49c0,0.2,0.02,0.4,0.02,0.61c0,2.65-0.21,5.12-0.6,7.46c-0.02,0.03-0.05,0.07-0.08,0.1
		c0.4-2.37,0.61-4.88,0.61-7.56C83.73,144.53,81.19,136.61,75.39,130.61z M84.55,158.36l7.46-10.59c0.49,1.2,1.09,2.33,1.75,3.37
		C90.19,153.08,86.98,155.49,84.55,158.36z M105.03,177.52c-3.9,0-7.95-2.73-7.73-7.87c0.12-2.92,1.65-5.55,4.27-7.45l10.85,13.04
		C110.39,176.68,107.68,177.52,105.03,177.52z M138.65,182.81l-6.1-7.13c3.63-3.81,5.68-10.06,6.1-15.75V182.81z M138.65,120.09
		v36.3h-13.51c0,3.24-0.67,6.29-1.84,8.18l-10.34-12.41c-2.6-3.15-4.46-6.63-2.95-9.19c1.24-2.09,3.2-2.68,6.03-2.71
		c2.88-0.05,4.43,0.36,7.29,1.69v-12.74c-5.35-1.23-8.99-1.64-13.74-1.48c-1.32,0.04-2.54,0.14-3.69,0.3l41.51-58.94
		c0.39,0.25,0.78,0.48,1.2,0.69l-27.03,59.03c0.58,0.12,1.19,0.25,1.81,0.4v2.36l26.49-61.22c0.43,0.16,0.87,0.31,1.32,0.43
		l-10.9,49.31H138.65z M142.93,120.09l9.64-49.03c0.46,0.08,0.92,0.12,1.38,0.15l-0.51,48.88H142.93z M163.51,177.99h-3.97v-19.33
		h5.95c7.23,0,9.99,3.55,9.99,8.98C175.49,174.35,170.84,177.99,163.51,177.99z M173.51,138.63c0,4.55-2.67,8.88-10.3,8.88h-3.66
		v-16.26h5.84C168.47,131.25,173.51,132.82,173.51,138.63z M166.76,120.09h-10.89l-0.51-48.88c0.47-0.02,0.92-0.07,1.38-0.15
		C156.74,71.07,161.37,93.65,166.76,120.09z"/>
</g>
</svg>
