<?xml version="1.0" encoding="utf-8"?>
<!-- Generator: Adobe Illustrator 24.2.0, SVG Export Plug-In . SVG Version: 6.00 Build 0)  -->
<svg version="1.1" id="Layer_1" xmlns="http://www.w3.org/2000/svg" xmlns:xlink="http://www.w3.org/1999/xlink" x="0px" y="0px"
	 viewBox="0 0 175.45 184.12" style="enable-background:new 0 0 175.45 184.12;" xml:space="preserve">
<g>
	<path d="M115.17,56.49c0-4.22-0.06-8.26,0.07-12.29c0.02-0.61,0.82-1.52,1.45-1.74c6.41-2.18,12.95-3.82,19.75-4.19
		c5.05-0.27,10.11-0.36,14.96,1.25c4.25,1.41,8.51,3.18,10.5,7.55c1.12,2.46,1.77,5.31,1.87,8.02c0.31,8.02,0.25,16.05,0.3,24.07
		c0.04,5.73,3.1,9.19,8.76,9.79c0.77,0.08,1.53,0.23,2.62,0.4c-1.59,2.27-3.03,4.39-4.55,6.45c-0.23,0.31-0.79,0.56-1.19,0.54
		c-4.49-0.13-9.02,0.02-13.46-0.56c-5.38-0.7-7.86-2.88-10.67-8.06c-1.14,1.84-2.14,3.68-3.36,5.37c-0.62,0.86-1.52,1.67-2.48,2.1
		c-7.72,3.44-15.54,4.05-23.5,0.39c-2.6,6.95-7.79,11.26-14.29,13.89c-8.66,3.51-17.55,3.4-26.47,0.72
		c-5.47-1.64-10.39-4.22-14.62-8.1c-0.81-0.74-1.08-1.39-0.72-2.56c1.28-4.17,2.36-8.4,3.53-12.61c0.19-0.67,0.43-1.32,0.75-2.31
		c1.04,2.71,1.87,5.12,2.87,7.45c4.11,9.6,13.56,14.54,23.64,12.28c4.45-1,8.06-3.27,10.03-7.65c2.1-4.65,1.12-8.69-2.92-12.11
		c-2.5-2.12-5.75-3.44-8.82-4.78c-5.21-2.27-10.58-4.16-15.8-6.42c-1.84-0.8-3.41-2.21-5.28-3.45c-0.13,0.59-0.32,1.29-0.44,2.01
		c-2.13,12.43-9.37,20.6-21.03,24.92c-2.12,0.78-4.53,1.05-6.82,1.07c-13,0.11-26,0.08-39,0.09c-0.18,0-0.37-0.07-0.87-0.18
		C4.82,94.7,4.98,90,4.95,85.16c-0.08-11-0.05-22.01-0.12-33.01c-0.03-5.28-0.33-5.89-4.2-10.35c3.71,0,7.12,0.01,10.52,0
		c9.48-0.03,18.96-0.15,28.44-0.08c3.55,0.03,7.18,0.06,10.61,0.83c5.78,1.3,10.18,4.89,13.42,9.91c1.22-1.88,2.22-3.79,3.57-5.43
		c3.84-4.67,9.24-6.51,14.92-7.54c9.07-1.66,17.91-0.17,26.63,2.4c2.02,0.6,3.05,1.6,2.88,3.97c-0.25,3.41-0.06,6.86-0.06,9.73
		c-1.55-1.32-3.29-2.88-5.11-4.34c-5.13-4.12-10.84-6.39-17.51-4.98c-3.9,0.83-6.15,3.83-5.74,7.4c0.26,2.29,1.63,4.03,3.59,4.93
		c3.9,1.78,7.95,3.24,11.92,4.87c4.2,1.73,8.59,3.14,11.85,6.65c1.29-1.08,2.43-2.2,3.72-3.11c3.7-2.58,8.11-3.11,12.36-4.05
		c4.38-0.97,8.83-1.69,13.17-2.82c2.87-0.75,5.24-2.34,5.19-5.88c-0.05-3.22-2.16-6.08-5.53-7.26c-4.69-1.65-9.26-1.15-13.69,0.95
		c-3.78,1.79-6.91,4.39-9.45,7.71c-0.16,0.21-0.31,0.43-0.5,0.62C115.75,56.36,115.59,56.36,115.17,56.49z M24.27,68.82
		c0.02,0,0.05,0,0.07,0c0,4.84-0.03,9.67,0.02,14.51c0.01,1.45,0.17,2.9,0.38,4.33c0.24,1.66,1.39,2.63,2.97,2.73
		c6.35,0.39,11.87-1.37,16.09-6.42c6.05-7.23,5.96-18.43,2.09-25.84c-3.45-6.62-8.97-10.29-16.61-10.29c-3.54,0-4.96,1.39-5,4.9
		C24.23,58.1,24.27,63.46,24.27,68.82z M145.31,66.47c-2.29,0.8-4.08,1.47-5.89,2.04c-1.89,0.6-3.88,0.94-5.7,1.69
		c-1.82,0.74-3.67,1.62-5.19,2.83c-3.78,3.01-3.84,9.2-0.31,12.5c4.14,3.87,11.09,4.58,15.84,1.48c0.68-0.44,1.27-1.55,1.29-2.36
		c0.09-4.91-0.01-9.81-0.04-14.72C145.31,68.9,145.31,67.87,145.31,66.47z"/>
	<path d="M1.28,37.63c7.01-5.3,14.04-10.58,21.02-15.92c8.69-6.63,17.36-13.3,26-19.99c1.21-0.94,2.43-1.36,3.98-1.37
		C73.22,0.26,94.16,0.09,115.09,0c0.97,0,2.12,0.34,2.89,0.91c14.88,10.95,29.72,21.97,44.57,32.97c1.27,0.94,2.55,1.87,4.17,3.07
		c-0.94,0.12-1.48,0.24-2.02,0.25c-2.51,0.05-5.06-0.16-7.54,0.15c-3.8,0.47-6.48-1.43-9.29-3.5
		c-12.96-9.55-25.98-19.01-39.16-28.63c-1.62,1.21-3.31,2.45-4.98,3.73c-11.98,9.19-23.98,18.36-35.92,27.61
		c-1.83,1.42-3.86,1.23-5.85,1.24c-12.17,0.09-24.35,0.07-36.52,0.12c-7.34,0.03-14.68,0.12-22.02,0.19c-0.65,0.01-1.29,0-1.94,0
		C1.42,37.94,1.35,37.78,1.28,37.63z"/>
	<path d="M70.04,144.08c-1.63-5.19-3.25-10.38-4.88-15.57c-0.21,0.05-0.43,0.09-0.64,0.14c0.88,5.05-1.81,10.64,3.33,15.56
		c-14.7,0-28.85,0-43.09,0c0.11-0.42,0.12-0.74,0.22-0.77c2.73-0.92,2.77-3.08,2.71-5.44c-0.07-2.58,0.12-5.16,0.18-7.74
		c0.01-0.49-0.08-0.99-0.13-1.48c-0.2-0.05-0.39-0.1-0.59-0.15c-1.91,5.21-3.81,10.42-5.71,15.6c-1.38,0.07-2.7,0.29-3.96,0.12
		c-0.53-0.07-1.16-0.92-1.37-1.54c-1.3-3.89-2.48-7.82-3.71-11.73c-0.23-0.72-0.52-1.41-0.91-2.44c0,4.13-0.18,7.87,0.1,11.58
		c0.1,1.32,1.31,2.55,2.1,3.99c-2.42,0-4.98,0-7.54,0c0-0.26-0.04-0.48,0.01-0.5c3.03-1.45,3.16-4.3,3.37-7.07
		c0.21-2.64,0.31-5.29,0.47-7.93c0.12-1.99-0.17-3.73-2.44-4.39c-0.31-0.09-0.6-0.29-0.89-0.44c0.08-0.2,0.15-0.4,0.23-0.61
		c0.64-0.12,1.27-0.32,1.91-0.34c2.37-0.08,4.76,0,7.12-0.2c1.38-0.12,1.95,0.22,2.36,1.61c1.18,3.97,2.58,7.88,3.89,11.81
		c0.2,0.01,0.4,0.03,0.6,0.04c1.49-3.75,3.14-7.45,4.42-11.27c0.65-1.93,1.46-2.35,3.41-2.04c1.78,0.29,3.67-0.09,5.51-0.11
		c5.9-0.05,11.8-0.01,17.7-0.12c1.89-0.03,3.76-0.4,5.93-0.65c0,2.59,0,5.16,0,7.73c-0.17,0.09-0.34,0.18-0.52,0.26
		c-0.62-1-1.24-2.01-1.87-3.01c-1.55-2.49-4.88-3.69-7.55-2.47c-0.66,0.3-1.15,1.5-1.27,2.35c-0.18,1.29-0.11,2.66,0.13,3.95
		c0.1,0.52,0.88,1.3,1.36,1.31c1.91,0.05,3.83-0.26,5.74-0.21c0.54,0.01,1.06,0.75,1.6,1.16c-0.53,0.34-1.05,0.96-1.59,0.97
		c-1.71,0.04-3.43-0.17-5.15-0.24c-1.34-0.06-2.12,0.46-2.06,1.97c0.07,1.7,0.06,3.41,0,5.11c-0.06,1.56,0.97,1.96,2.15,2
		c2.54,0.09,4.91-0.29,6.26-2.89c0.64-1.23,1.36-2.43,2.14-3.58c0.24-0.35,0.8-0.48,1.21-0.7c0.16,0.45,0.5,0.93,0.45,1.35
		c-0.25,1.89-0.6,3.76-0.94,5.77c1.69-0.24,2.54-1.28,2.67-2.62c0.42-4.54,0.74-9.09,0.89-13.65c0.02-0.73-1-1.52-1.6-2.22
		c-0.36-0.42-0.85-0.72-1.29-1.08c0.07-0.19,0.14-0.39,0.2-0.58c1.15,0,2.29,0,3.44,0c1.33,0,2.65,0.03,3.98-0.01
		c3.11-0.11,3.1-0.12,4.09,2.93c0.92,2.83,1.85,5.66,2.8,8.48c0.2,0.6,0.5,1.17,1.01,2.35c1.77-4.47,3.39-8.36,4.83-12.32
		c0.45-1.25,0.84-1.64,2.31-1.63c7.75,0.08,15.5-0.09,23.24-0.12c1.78-0.01,3.58,0.03,5.33,0.32c2.03,0.33,3.28,1.61,3.46,3.76
		c0.22,2.58-0.64,4.27-2.79,5.15c-1.08,0.44-2.26,0.66-3.42,1.3c1.22,0.17,2.44,0.33,3.66,0.5c2.07,0.3,3.39,1.41,3.7,3.54
		c0.44,3-0.35,5.22-2.6,6.04c-1.76,0.64-3.72,1.01-5.59,1.03c-8.67,0.09-17.35,0.01-26.03-0.01c-1.3,0-2.59,0-4.03,0
		c0.18-0.58,0.19-0.79,0.26-0.82c2.97-0.98,2.77-3.42,2.73-5.83c-0.05-2.95-0.01-5.9-0.01-8.85c-0.18-0.06-0.36-0.12-0.53-0.18
		c-1.91,5.25-3.83,10.49-5.74,15.75C73.26,144.08,71.81,144.08,70.04,144.08z M93.68,132.54c0.06,0,0.12,0,0.18,0
		c0-2.05,0.24-4.14-0.1-6.14c-0.17-1.01-1.4-1.83-2.15-2.74c-0.84,0.74-1.73,1.43-2.49,2.25c-0.26,0.28-0.26,0.88-0.26,1.33
		c-0.03,4.21-0.06,8.41-0.02,12.62c0.01,1.63,0.87,3.02,2.52,2.98c1.54-0.03,2.31-1.39,2.33-2.97
		C93.69,137.43,93.68,134.98,93.68,132.54z M40.44,131.85c0.01,0,0.02,0,0.03,0c0-1.44,0.11-2.9-0.03-4.33
		c-0.17-1.84-1.57-3.44-2.8-3.19c-1.79,0.35-2.09,1.92-2.12,3.38c-0.08,4.03-0.05,8.07-0.02,12.1c0.01,1.55,0.43,3.15,2.24,3.16
		c1.72,0.01,2.68-1.28,2.69-3.07C40.46,137.22,40.44,134.53,40.44,131.85z M103.54,133.37c-1.54-0.28-2.05,0.53-1.94,2.16
		c0.11,1.65,0.04,3.3,0.02,4.96c-0.02,1.4,0.71,2.02,2.04,2.15c2.66,0.25,4.19-1.28,4.32-4.38
		C108.11,134.97,106.71,133.37,103.54,133.37z M107.55,127.29c-0.06-0.25-0.15-0.91-0.39-1.52c-0.57-1.51-2.23-2.33-3.89-2.03
		c-1.71,0.31-1.68,1.59-1.66,2.9c0.02,1.26,0.06,2.52-0.01,3.77c-0.09,1.54,0.68,1.98,2.06,1.88
		C106.13,132.12,107.59,130.42,107.55,127.29z"/>
	<path d="M158.7,132.77c3.31,3.46,4.63,8.43,9.39,10.79c-0.45,0.08-0.89,0.21-1.34,0.22c-2.52,0.02-5.05-0.13-7.55,0.06
		c-1.76,0.14-2.69-0.56-3.44-2c-1.13-2.17-2.32-4.31-3.61-6.38c-0.4-0.65-1.23-1.03-1.86-1.54c-0.29,0.81-0.68,1.6-0.82,2.44
		c-0.12,0.69,0.12,1.44,0.09,2.15c-0.07,1.86,0.3,3.43,2.33,4.11c0.25,0.08,0.42,0.43,0.91,0.97c-4.79,0-9.21,0-13.94,0
		c0.32-0.42,0.49-0.88,0.79-1.01c1.62-0.69,2.23-1.89,2.22-3.61c-0.02-4.07,0.16-8.14,0-12.2c-0.04-0.95-1.08-1.89-1.74-2.78
		c-0.33-0.45-0.81-0.78-1.22-1.16c0.08-0.17,0.15-0.34,0.23-0.5c1.08,0,2.17,0,3.25,0c5.5-0.03,11-0.07,16.5-0.07
		c1.87,0,3.59,0.5,4.47,2.36c0.9,1.91,0.67,3.89-0.63,5.41C161.77,131.13,160.26,131.74,158.7,132.77z M149.63,128.32
		c0.03,0,0.06,0,0.09,0c0,0.99-0.1,2,0.04,2.96c0.07,0.48,0.53,1.11,0.96,1.27c1.5,0.58,3.61-0.25,4.13-1.81
		c0.45-1.33,0.55-2.83,0.52-4.25c-0.04-1.97-1.17-2.75-3.31-2.8c-2.05-0.04-2.36,1.28-2.44,2.85
		C149.6,127.13,149.63,127.73,149.63,128.32z"/>
	<path d="M138.11,121.88c0.15,2.04,0.33,4.27,0.44,6.5c0.02,0.32-0.3,0.66-0.46,0.99c-0.32-0.17-0.77-0.26-0.95-0.53
		c-0.66-0.99-1.21-2.05-1.85-3.05c-1.08-1.66-6-2.66-7.56-1.5c-0.37,0.28-0.63,0.85-0.73,1.32c-0.13,0.64-0.08,1.32-0.07,1.98
		c0.1,4.48-0.82,4.48,4.63,4.16c0.99-0.06,1.98-0.28,2.95-0.19c0.46,0.05,0.86,0.67,1.29,1.04c-0.47,0.4-0.93,1.13-1.4,1.13
		c-1.85,0.03-3.69-0.17-5.54-0.27c-1.32-0.07-1.96,0.55-1.94,1.89c0.03,1.59,0.03,3.18,0,4.77c-0.03,1.55,0.68,2.34,2.22,2.4
		c2.65,0.1,5-0.36,6.41-2.98c0.8-1.5,1.74-2.92,2.62-4.38c0.21-0.01,0.43-0.02,0.64-0.03c0.15,0.62,0.48,1.26,0.41,1.86
		c-0.24,1.97-0.71,3.91-0.93,5.88c-0.13,1.14-0.6,1.4-1.66,1.38c-6.55-0.13-13.1-0.19-19.64-0.31c-0.34-0.01-0.72-0.22-0.98-0.45
		c-0.07-0.07,0.14-0.73,0.33-0.78c3.17-0.97,2.56-3.67,2.62-5.93c0.08-3.15-0.15-6.3-0.16-9.46c-0.01-1.48-0.48-2.53-1.86-3.2
		c-0.43-0.21-0.67-0.8-1-1.22c0.51-0.19,1.01-0.54,1.52-0.55c3.69-0.05,7.39,0.03,11.08-0.04
		C131.62,122.26,134.71,122.04,138.11,121.88z"/>
	<path d="M53.38,159.79c-0.79,0.1-1.6,0.36-2.38,0.27c-1.46-0.16-2.18,0.25-1.99,1.81c0.05,0.39-0.12,0.82-0.03,1.18
		c0.2,0.77,0.44,2.11,0.77,2.14c0.96,0.09,2.19-0.06,2.91-0.64c0.96-0.76,1.53-2.01,2.77-2.94c-0.15,1.62-0.29,3.25-0.44,4.92
		c-5.1,0-9.99,0.05-14.89-0.05c-0.71-0.01-1.58-0.56-2.06-1.13c-0.97-1.16-1.67-2.54-2.58-3.77c-0.37-0.5-0.98-0.81-1.94-1.58
		c0.17,2.57-0.93,4.71,2.04,6.33c-5.24,0-9.86,0-14.83,0c2.6-1.7,1.87-4.16,1.82-6.36c-0.05-2.1,1.05-4.63-2.07-6
		c0.68-0.24,1.02-0.47,1.36-0.48c5.21-0.07,10.42-0.11,15.63-0.14c2.63-0.02,4.12,0.72,4.26,2.32c0.18,1.96-0.9,3.23-2.74,3.88
		c-0.1,0.04-0.17,0.19-0.38,0.43c1.24,1.57,2.43,3.23,3.79,4.74c0.4,0.45,1.44,0.84,1.85,0.62c0.56-0.29,1.08-1.18,1.12-1.84
		c0.13-2.38,0.19-4.79-0.02-7.16c-0.08-0.94-0.94-1.81-1.6-3c3.64,0,7.11,0,10.9,0c0.08,1.08,0.19,2.46,0.29,3.84
		c-0.19,0.08-0.37,0.16-0.56,0.24c-0.36-0.53-0.65-1.14-1.11-1.56c-0.63-0.56-1.35-1.2-2.13-1.37c-0.62-0.14-1.91,0.27-1.98,0.61
		c-0.22,1.12-0.07,2.34,0.08,3.5c0.02,0.16,0.81,0.29,1.24,0.31c0.91,0.05,1.82,0.01,2.73,0.01
		C53.29,159.22,53.33,159.51,53.38,159.79z M26.36,160.11c-0.01,0-0.02,0-0.03,0c0,1.06,0.01,2.12,0,3.18
		c-0.02,1.27,0.43,2.49,1.77,2.32c0.68-0.09,1.62-1.37,1.71-2.18c0.24-2.36,0.23-4.77,0.05-7.14c-0.05-0.64-1.05-1.66-1.64-1.69
		c-0.59-0.03-1.62,0.9-1.77,1.56C26.16,157.42,26.36,158.79,26.36,160.11z M33.62,157.27c0.24,0.83-0.64,2.36,1.29,2.43
		c1.58,0.06,2.92-1.27,2.9-2.91c-0.02-1.47-0.69-2.34-2.29-2.37C33.43,154.37,33.64,155.82,33.62,157.27z"/>
	<path d="M44.09,170.51c0,1.41,0,2.61,0,4.23c-0.86-1.09-1.32-2.04-2.08-2.54c-0.74-0.49-1.8-0.74-2.68-0.67
		c-0.44,0.04-1.24,1.21-1.1,1.55c0.3,0.75,1.02,1.44,1.72,1.9c0.76,0.49,1.7,0.71,2.57,1.02c1.62,0.58,2.9,1.59,2.87,3.4
		c-0.02,1.88-0.87,3.46-2.75,4.22c-0.54,0.22-1.14,0.45-1.71,0.46c-4.13,0.04-8.25,0.02-13.01,0.02c1.91-1.64,2.3-3.41,0.86-4.46
		c-0.91-0.66-2.82-0.42-4.07,0.01c-1.1,0.38-0.87,2.23,0.36,4.21c-1.54,0-2.99,0-4.73,0c3.24-3.56,4.61-7.84,6.3-11.94
		c0.52-1.28,1.41-1.16,2.21-1c0.57,0.11,1.25,0.78,1.47,1.36c1.09,2.84,2.02,5.73,3.06,8.59c0.23,0.64,0.64,1.21,1.37,1.72
		c0.11-1.26,0.22-2.51,0.33-3.77c0.17-0.03,0.34-0.07,0.5-0.1c0.34,0.65,0.69,1.29,1.02,1.95c0.73,1.44,1.71,2.72,3.46,2.42
		c0.78-0.13,1.79-0.97,2.01-1.7c0.16-0.52-0.67-1.59-1.31-2.06c-0.78-0.56-1.86-0.66-2.75-1.08c-2.24-1.06-3.02-2.66-2.52-4.98
		c0.34-1.62,1.87-2.69,4.11-2.78C41.03,170.46,42.48,170.51,44.09,170.51z M28.63,178.24c-0.56-1.65-1.05-3.06-1.72-5.02
		c-0.76,1.97-1.31,3.38-1.94,5.02C26.27,178.24,27.26,178.24,28.63,178.24z"/>
	<path d="M156.3,153.17c-2.26,1.4-2.17,3.63-2.16,5.83c0.01,1.72,0.05,3.45-0.05,5.17c-0.04,0.61-0.49,1.7-0.73,1.7
		c-0.75-0.01-1.76-0.23-2.2-0.76c-2.07-2.49-3.98-5.11-5.93-7.7c-0.23-0.3-0.34-0.7-0.81-0.84c0.14,3.24-1.83,6.81,1.97,9.29
		c-4.15,0-8.3,0-12.91,0c2.65-1.77,1.94-4.21,1.87-6.41c-0.06-2.09,1.07-4.64-1.94-5.92c0.07-0.19,0.14-0.38,0.2-0.57
		c2.26,0,4.54,0.2,6.77-0.04c4.28-0.46,7.65,0.47,9.63,4.74c0.6,1.29,1.89,2.26,2.98,3.51c0.95-3.81,0.37-5.97-2.22-8
		C152.79,153.17,154.55,153.17,156.3,153.17z M139.04,159.49c0.01,0,0.02,0,0.03,0c0,1.19-0.06,2.38,0.02,3.57
		c0.07,1.05,0.48,2.18,1.72,1.92c0.78-0.16,1.89-1.02,2-1.7c0.38-2.4,0.44-4.85,0.53-7.29c0.06-1.55-1.22-2.21-2.35-2.08
		c-0.72,0.08-1.63,1.21-1.87,2.05C138.79,157.05,139.04,158.31,139.04,159.49z"/>
	<path d="M123.34,170.37c-2.59,2.5-2.67,10.39,0.27,12.91c-2.6,0-4.85,0-7.15,0c2.69-3.3,1.18-7.18,1.25-10.85
		c0.01-0.39-0.84-0.79-1.57-1.43c-0.1,1.63-0.16,2.83-0.25,4.33c-1.63-1.39-1.34-4.8-4.66-3.49c0,3.02-0.1,6.06,0.07,9.09
		c0.04,0.81,0.89,1.59,1.46,2.51c-2.24,0-4.37,0-6.55,0c2.94-3.63,0.59-7.79,1.57-11.51c-3.29-1.3-3.29,1.8-5.03,3.36
		c0.09-2.02,0.16-3.54,0.22-4.92C109.92,170.37,116.63,170.37,123.34,170.37z"/>
	<path d="M94.61,183.52c-3.45,0-6.91,0-10.81,0c2.56-1.81,1.96-4.22,1.86-6.41c-0.1-2.11,1.11-4.64-1.56-6.37c2.32,0,4.64,0,7.02,0
		c-3.21,3.26-1.59,7.13-1.52,10.78c0.01,0.31,0.7,0.92,0.87,0.85c0.51-0.2,1.09-0.56,1.32-1.03c1.42-2.83,2.81-5.69,4.1-8.58
		c1.03-2.3,0.96-2.33,3.63-2.14c1.49,4.27,2.28,8.9,5.4,12.75c-2.23,0-4.45,0-6.89,0c1.43-1.37,1.94-3.14,0.24-4.18
		c-0.97-0.59-3.08-0.41-4.02,0.3C93.05,180.39,93.17,182.08,94.61,183.52z M96.82,173.43c-0.15-0.02-0.3-0.03-0.45-0.05
		c-0.58,1.44-1.16,2.89-1.8,4.5c1.36,0,2.36,0,3.68,0C97.71,176.23,97.27,174.83,96.82,173.43z"/>
	<path d="M5.66,153.49c3.37,0,6.73-0.07,10.1,0.02c2.9,0.08,4.83,1.97,5,4.87c0.07,1.3-0.04,2.66-0.36,3.92
		c-0.72,2.8-2.15,4.06-5.03,4.21c-3.18,0.16-6.38,0.04-9.68,0.04C7.97,163.39,7.87,156.59,5.66,153.49z M10.82,159.91
		c0,1.25,0.08,2.51-0.02,3.76c-0.15,1.88,0.89,2.43,2.43,2.08c0.89-0.21,1.83-0.77,2.44-1.45c1.57-1.75,1.7-7.16,0.01-8.74
		c-0.83-0.78-2.42-1.02-3.67-1.04c-1.6-0.02-1.14,1.45-1.18,2.43C10.78,157.93,10.81,158.92,10.82,159.91z"/>
	<path d="M63.89,170.42c4.86,0.05,6.75,1.96,6.7,6.79c-0.05,4.26-2.91,6.84-7.57,6.82c-4.29-0.02-6.49-2.41-6.43-6.98
		C56.65,172.61,59.1,170.38,63.89,170.42z M66.71,176.97c-0.17-1.11-0.1-2.47-0.62-3.55c-0.45-0.93-1.53-2.09-2.38-2.13
		c-0.85-0.04-2.39,1.09-2.52,1.88c-0.39,2.5-0.37,5.08-0.3,7.63c0.04,1.41,1.12,2.56,2.46,2.27c1.01-0.22,2.11-1.29,2.63-2.26
		C66.54,179.76,66.47,178.37,66.71,176.97z"/>
	<path d="M123.83,177.08c0-4.76,2.28-7.02,7.06-7.01c4.65,0.01,6.91,1.97,6.89,5.98c-0.02,5.21-2.39,7.63-7.44,7.62
		C125.93,183.67,123.82,181.53,123.83,177.08z M127.48,176.76c0.16,1.28,0.23,2.33,0.42,3.36c0.27,1.48,0.98,2.64,2.66,2.71
		c1.62,0.07,2.57-1.08,2.7-2.4c0.25-2.45,0.29-4.97,0.01-7.41c-0.09-0.78-1.44-1.97-2.23-1.98c-0.91-0.01-2.22,0.87-2.67,1.73
		C127.75,173.99,127.73,175.54,127.48,176.76z"/>
	<path d="M140.89,173.55c0.62,3.58-1.32,7.12,3.01,9.65c-2.48,0-4.31,0-6.46,0c4.13-2.74,2.41-6.78,2.65-10.29
		c0.05-0.7-1.17-1.49-1.91-2.34c1.58-0.12,3.18-0.35,4.76-0.31c0.49,0.01,1.03,0.72,1.41,1.21c1.78,2.29,3.52,4.62,5.57,6.82
		c-0.09-2.72,1.51-5.77-1.86-7.89c1.73,0,3.46,0,5.19,0c-2.44,1.76-2.21,4.26-2.2,6.68c0,1.98,0,3.95,0,5.88
		c-1.68,0.71-2.63,0.14-3.51-1.1c-1.73-2.42-3.57-4.76-5.38-7.12C141.94,174.45,141.62,174.23,140.89,173.55z"/>
	<path d="M167.15,152.76c0,1.52,0,3.02,0,4.52c-0.14,0.05-0.28,0.1-0.43,0.14c-0.36-0.72-0.55-1.63-1.11-2.12
		c-0.89-0.77-2.05-1.75-3.06-1.71c-0.87,0.04-2.24,1.28-2.4,2.17c-0.42,2.36-0.4,4.81-0.34,7.22c0.02,0.65,0.69,1.66,1.27,1.84
		c0.85,0.27,2.13,0.27,2.78-0.21c0.88-0.66,0.29-2.66-0.72-3.19c-0.39-0.21-0.81-0.37-1.17-0.92c2.25,0,4.5,0,6.46,0
		c-0.35,1.59-0.71,3.22-1.14,5.18c-2.15,0.13-4.56,0.48-6.96,0.37c-2.6-0.12-4.22-1.77-4.68-4.35c-0.96-5.37,1.46-9.29,7.4-8.95
		C164.36,152.83,165.67,152.76,167.15,152.76z"/>
	<path d="M108.56,152.91c0.06,1.38,0.13,2.76,0.19,4.15c-0.2,0.07-0.39,0.13-0.59,0.2c-0.35-0.56-0.7-1.12-1.04-1.68
		c-0.77-1.27-3.02-2.19-3.63-1.25c-0.65,1-0.53,2.54-0.59,3.86c-0.01,0.13,1.08,0.36,1.67,0.45c0.82,0.12,1.65,0.15,2.47,0.22
		c-0.01,0.29-0.02,0.58-0.03,0.87c-0.88,0-1.76,0.05-2.63-0.01c-1.18-0.09-1.76,0.36-1.66,1.59c0.04,0.46-0.09,0.95,0.03,1.39
		c0.21,0.8,0.61,2.26,0.82,2.24c1.15-0.11,2.44-0.34,3.36-0.99c0.82-0.57,1.22-1.74,1.8-2.65c0.19,0.05,0.38,0.09,0.57,0.14
		c-0.16,1.62-0.31,3.24-0.46,4.76c-3.84,0-7.47,0-11.31,0c2.31-2.9,2.26-10.44-0.13-12.75
		C101.14,153.25,104.64,153.09,108.56,152.91z"/>
	<path d="M95.9,157.26c-0.97-1.23-1.48-2.26-2.31-2.79c-0.73-0.47-1.84-0.56-2.74-0.45c-0.4,0.05-1.1,1.19-0.95,1.49
		c0.35,0.75,1.03,1.44,1.74,1.89c0.82,0.51,1.84,0.69,2.75,1.09c2.3,1.01,3.11,2.3,2.75,4.24c-0.36,1.97-2.26,3.62-4.36,3.7
		c-0.98,0.04-1.97-0.09-2.96-0.17c-0.98-0.08-1.96-0.2-3.22-0.33c0.08-1.45,0.17-2.98,0.26-4.51c0.15-0.06,0.29-0.12,0.44-0.18
		c0.3,0.55,0.6,1.11,0.9,1.66c0.78,1.45,1.75,2.85,3.59,2.6c0.79-0.11,1.8-0.93,2.07-1.66c0.17-0.47-0.69-1.56-1.33-2.03
		c-0.77-0.56-1.84-0.7-2.74-1.12c-2.29-1.05-3.03-2.41-2.65-4.72c0.3-1.81,1.68-2.83,4.09-3.02c0.26-0.02,0.53-0.02,0.79-0.02
		c1.24,0,2.49,0,3.85,0C95.9,154.35,95.9,155.55,95.9,157.26z"/>
	<path d="M45.98,183.56c0-1.62,0-3.13,0-4.65c0.17-0.05,0.34-0.1,0.51-0.16c0.3,0.59,0.5,1.26,0.92,1.74
		c0.8,0.92,1.59,1.98,2.63,2.51c1.19,0.62,2.42,0.03,2.88-1.29c0.45-1.29-0.2-2.11-1.5-2.54c-1.12-0.37-2.21-0.87-3.27-1.39
		c-1.88-0.9-2.19-2.54-1.85-4.36c0.33-1.81,1.62-2.73,3.35-2.87c1.69-0.14,3.41-0.03,5.29-0.03c0,1.25,0,2.46,0,4.12
		c-0.78-0.98-1.2-1.83-1.89-2.27c-0.81-0.53-1.84-0.89-2.8-0.95c-0.38-0.02-1.27,1.2-1.14,1.49c0.36,0.81,1.08,1.52,1.8,2.09
		c0.49,0.39,1.21,0.49,1.83,0.7c2.6,0.86,3.76,2.31,3.45,4.35c-0.35,2.32-2.22,3.97-4.72,3.94
		C49.68,183.98,47.91,183.72,45.98,183.56z"/>
	<path d="M82.46,175.15c-0.48-0.84-0.91-1.72-1.45-2.52c-1.48-2.19-4.06-1.99-5.17,0.4c-1.17,2.53-1.15,5.15-0.3,7.74
		c0.83,2.53,3.49,3.03,5.28,1.02c0.71-0.8,1.26-1.73,2.31-2.43c-0.15,1.38-0.3,2.76-0.46,4.16c-2.09,0.15-4,0.43-5.9,0.38
		c-3.71-0.11-5.77-2.35-5.89-6.11c-0.13-3.99,2-6.92,5.52-7.26c2.07-0.2,4.17-0.04,6.46-0.04c0.06,1.38,0.14,2.96,0.21,4.53
		C82.87,175.07,82.67,175.11,82.46,175.15z"/>
	<path d="M67.97,162.06c-0.13,1.39-0.27,2.77-0.43,4.48c-2.25,0-4.34,0.05-6.42-0.01c-2.51-0.08-4.25-1.48-4.92-3.85
		c-1.65-5.77,1.87-10.07,7.9-9.65c1.16,0.08,2.32,0.12,3.67,0.18c0,1.42,0,2.94,0,4.47c-0.14,0.06-0.27,0.12-0.41,0.18
		c-0.29-0.5-0.61-0.99-0.88-1.51c-0.73-1.43-1.64-2.61-3.48-2.36c-1.85,0.25-2.53,1.72-2.74,3.22c-0.24,1.81-0.33,3.72,0,5.5
		c0.19,1.06,1.14,2.49,2.05,2.77c0.92,0.29,2.36-0.44,3.31-1.09c0.81-0.55,1.25-1.63,1.86-2.48
		C67.65,161.97,67.81,162.01,67.97,162.06z"/>
	<path d="M81.76,153.1c0,1.47,0,3.12,0,5.07c-1.7-1.33-1.35-4.99-4.81-3.4c0,2.84-0.11,5.75,0.07,8.64c0.05,0.88,0.9,1.71,1.48,2.71
		c-2.1,0-4.3,0-6.96,0c2.3-1.33,2.07-3.12,1.95-4.99c-0.14-2.14-0.03-4.31-0.03-6.42c-3.16-1.28-3.07,1.93-4.93,3.53
		c0.16-2.09,0.28-3.64,0.4-5.14C73.19,153.1,77.37,153.1,81.76,153.1z"/>
	<path d="M121.3,166c2.55-2.39,2.55-10.04,0.12-12.75c2.45,0,4.7,0,7.65,0c-2.72,1.06-2.35,2.93-2.33,4.66
		c0.02,1.51,0.13,3.02,0.13,4.53c0,1.01-0.5,2.24,0.99,2.56c1.5,0.31,2.73-0.2,3.49-1.63c0.45-0.84,0.94-1.66,1.41-2.49
		c0.22,0.06,0.44,0.12,0.67,0.18c-0.24,1.65-0.49,3.29-0.73,4.94C128.87,166,125.27,166,121.3,166z"/>
	<path d="M109.22,153.22c2.6,0,4.78,0,7.05,0c-2.96,3.22-1,7.1-1.47,10.66c-0.05,0.34,0.74,1.17,1.01,1.12
		c1.09-0.23,2.33-0.47,3.14-1.16c0.82-0.7,1.18-1.93,1.74-2.93c0.24,0.08,0.49,0.16,0.73,0.24c-0.27,1.6-0.54,3.2-0.82,4.9
		c-3.71,0-7.3,0-10.98,0C111.87,162.99,111.79,155.9,109.22,153.22z"/>
</g>
</svg>
