<?xml version="1.0" encoding="utf-8"?>
<!-- Generator: Adobe Illustrator 24.2.0, SVG Export Plug-In . SVG Version: 6.00 Build 0)  -->
<svg version="1.1" id="Layer_1" xmlns="http://www.w3.org/2000/svg" xmlns:xlink="http://www.w3.org/1999/xlink" x="0px" y="0px"
	 viewBox="0 0 216.04 180.7" style="enable-background:new 0 0 216.04 180.7;" xml:space="preserve">
<style type="text/css">
	.st0{fill:#FFFFFF;}
</style>
<polygon points="154.5,0 168.95,44.82 216.04,44.72 177.88,72.31 192.53,117.07 154.5,89.3 116.46,117.07 131.11,72.31 92.95,44.72 
	140.04,44.82 "/>
<g>
	<polygon class="st0" points="108.16,87.45 72.99,113.11 86.54,71.74 51.26,46.23 94.8,46.32 108.16,4.89 121.52,46.32 
		165.06,46.23 129.78,71.74 143.32,113.11 	"/>
	<path d="M108.16,9.77l11.6,35.96l0.67,2.08l2.19,0l37.79-0.08l-30.62,22.15l-1.77,1.28l0.68,2.08l11.76,35.91l-30.52-22.28
		l-1.77-1.29l-1.77,1.29l-30.52,22.28l11.76-35.91l0.68-2.08l-1.77-1.28L55.91,47.74l37.79,0.08l2.19,0l0.67-2.08L108.16,9.77
		 M108.16,0L93.71,44.82l-47.09-0.1l38.16,27.6l-14.65,44.75l38.04-27.76l38.04,27.76l-14.65-44.75l38.16-27.6l-47.09,0.1L108.16,0
		L108.16,0z"/>
</g>
<polygon points="61.55,0 76,44.82 123.09,44.72 84.93,72.31 99.58,117.07 61.55,89.3 23.51,117.07 38.16,72.31 0,44.72 47.09,44.82 
	"/>
<path d="M37.13,179.46h-9.31v-44.83h9.31V179.46z"/>
<path d="M80.88,139.4c1.37,1.91,2.06,4.19,2.06,6.84c0,2.74-0.69,4.94-2.08,6.6c-0.77,0.93-1.91,1.78-3.42,2.55
	c2.29,0.83,4.01,2.15,5.18,3.95c1.17,1.8,1.75,4,1.75,6.57c0,2.66-0.66,5.04-2,7.15c-0.85,1.4-1.91,2.58-3.17,3.53
	c-1.43,1.1-3.12,1.85-5.07,2.25c-1.95,0.41-4.06,0.61-6.33,0.61H47.6v-44.83h21.67C74.73,134.7,78.61,136.3,80.88,139.4z
	 M56.54,142.41v9.88h10.9c1.95,0,3.53-0.37,4.74-1.11c1.21-0.74,1.82-2.05,1.82-3.94c0-2.09-0.8-3.47-2.41-4.14
	c-1.39-0.47-3.15-0.7-5.3-0.7H56.54z M56.54,159.72v11.95h10.88c1.94,0,3.46-0.26,4.54-0.79c1.96-0.97,2.95-2.84,2.95-5.6
	c0-2.33-0.95-3.93-2.86-4.81c-1.06-0.49-2.56-0.74-4.48-0.76H56.54z"/>
<path d="M126.51,175.47c-3.39,3.49-8.28,5.23-14.69,5.23c-6.41,0-11.3-1.74-14.69-5.23c-4.54-4.28-6.81-10.44-6.81-18.49
	c0-8.21,2.27-14.38,6.81-18.49c3.39-3.49,8.28-5.23,14.69-5.23c6.41,0,11.3,1.74,14.69,5.23c4.52,4.12,6.78,10.28,6.78,18.49
	C133.29,165.03,131.03,171.19,126.51,175.47z M120.66,168.66c2.18-2.74,3.27-6.63,3.27-11.68c0-5.03-1.09-8.92-3.27-11.66
	c-2.18-2.75-5.12-4.12-8.84-4.12c-3.71,0-6.67,1.37-8.88,4.11c-2.21,2.74-3.32,6.63-3.32,11.68c0,5.05,1.11,8.94,3.32,11.68
	c2.21,2.74,5.17,4.11,8.88,4.11C115.53,172.76,118.48,171.4,120.66,168.66z"/>
<path d="M150.82,134.62h10.6l15.86,44.83h-10.16l-2.96-9.22h-16.51l-3.04,9.22h-9.8L150.82,134.62z M150.2,162.51h11.48l-5.66-17.64
	L150.2,162.51z"/>
<path d="M193.09,179.46h-9.31v-44.83h9.31V179.46z"/>
</svg>
